<?xml version="1.0" encoding="utf-8"?>
<!-- Generator: Adobe Illustrator 16.0.0, SVG Export Plug-In . SVG Version: 6.00 Build 0)  -->
<!DOCTYPE svg PUBLIC "-//W3C//DTD SVG 1.1//EN" "http://www.w3.org/Graphics/SVG/1.1/DTD/svg11.dtd">
<svg version="1.1" id="Layer_1" xmlns="http://www.w3.org/2000/svg" xmlns:xlink="http://www.w3.org/1999/xlink" x="0px" y="0px"
	 width="2771.445px" height="1176.311px" viewBox="0 0 2771.445 1176.311" enable-background="new 0 0 2771.445 1176.311"
	 xml:space="preserve">
<g>
	<polygon fill="#231F20" points="652.645,437.865 652.645,359.792 380.397,359.792 380.397,788.082 465.804,788.082 
		465.804,617.773 627.419,617.773 627.419,536.474 465.804,536.474 465.804,437.865 	"/>
	<path fill="#231F20" d="M711.842,788.082h85.405V485.066h-85.405V788.082z M710.669,359.792v87.752h87.166v-87.752H710.669z"/>
	<path fill="#231F20" d="M1106.996,504.837c-24.723-22.87-59.244-34.465-102.604-34.465c-48.518,0-95.794,11.286-140.517,33.545
		l-3.673,1.828v282.336h85.405V551.508c17.125-2.812,33.618-4.237,49.105-4.237c14.938,0,27.236,1.39,36.555,4.132
		c8.525,2.507,14.625,6.147,18.128,10.817c3.878,5.169,6.469,10.091,7.704,14.632c1.307,4.795,1.97,10.969,1.97,18.35v192.879
		h85.405V601.363C1144.475,560.329,1131.865,527.853,1106.996,504.837z"/>
	<path fill="#231F20" d="M1384.616,359.792v114.061c-14.821-2.312-29.332-3.481-43.235-3.481
		c-46.503,0-82.783,13.821-107.833,41.079c-24.905,27.099-37.532,66.33-37.532,116.603c0,27.433,3.569,52.017,10.607,73.068
		c7.114,21.278,15.979,37.756,26.35,48.974c10.269,11.111,22.497,20.288,36.344,27.275c13.745,6.939,26.046,11.303,36.56,12.972
		c10.165,1.614,20.53,2.433,30.81,2.433c44.387,0,78.048-10.646,100.048-31.645c22.09-21.081,33.29-46.658,33.29-76.022V359.792
		H1384.616z M1336.688,717.635c-20.54,0-34.404-6.627-42.388-20.262c-8.543-14.583-12.875-39.192-12.875-73.146
		c0-31.929,5.371-54.269,15.963-66.399c10.504-12.031,25.651-17.882,46.309-17.888c14.901,0.168,28.636,1.436,40.92,3.771v148.184
		C1384.616,698.261,1384.616,717.635,1336.688,717.635z"/>
	<path fill="#231F20" d="M1716.167,550.205v-75.14h-70.983V386.19h-85.406v88.875h-50.451v75.14h50.451V687.01
		c0,32.527,9.212,58.55,27.379,77.346c18.229,18.857,43.417,28.418,74.867,28.418h1.467c17.421,0,33.771-3.131,48.599-9.308
		l4.078-1.699v-74.035l-9.251,3.991c-9.092,3.922-19.755,5.911-31.693,5.911c-14.985,0-21.512-2.829-24.35-5.203
		c-3.723-3.112-5.689-10.381-5.689-21.022V550.205H1716.167z"/>
	<path fill="#231F20" d="M1933.132,470.373c-25.956,0.395-52.469,3.628-78.802,9.609c-26.544,6.029-43.801,10.577-52.755,13.904
		c-8.896,3.305-15.691,6.088-20.778,8.509l-3.779,1.798v283.889h85.406v-234.16c19.904-5.227,43.725-8.054,70.896-8.41l6.539-0.085
		v-75.155L1933.132,470.373z"/>
	<path fill="#231F20" d="M1994.947,368.299v79.246h87.169v-79.246H1994.947z M1996.123,788.082h85.406V485.066h-85.406V788.082z"/>
	<path fill="#231F20" d="M2414.446,562.399c-7.275-21.197-16.083-37.609-26.177-48.78c-10.054-11.126-22.257-20.311-36.273-27.3
		c-13.883-6.916-26.218-11.267-36.665-12.933c-10.14-1.612-20.463-2.429-30.683-2.429c-44.396,0-77.964,10.639-99.771,31.622
		c-21.883,21.05-32.979,46.588-32.979,75.904v320.763h85.406V790.678c13.917,2.561,28.227,3.856,42.65,3.856
		c46.329,0,82.568-14.002,107.71-41.618c24.986-27.438,37.655-66.98,37.655-117.528
		C2425.32,607.994,2421.662,583.438,2414.446,562.399z M2237.305,571.738c0-6.342,0-25.64,47.344-25.64
		c20.537,0,34.404,6.606,42.392,20.194c8.541,14.544,12.871,39.074,12.871,72.907c0,32.57-5.596,55.307-16.632,67.578
		c-11.007,12.241-26.809,18.191-48.31,18.191c-11.056,0-23.703-0.903-37.665-2.688V571.738z"/>
</g>
</svg>
